<svg width="38" height="38" viewBox="0 0 38 38" fill="none" xmlns="http://www.w3.org/2000/svg">
<path d="M10.6875 4.75V5.9375H5.9375V32.0625H32.0625V5.9375H27.3125V4.75H24.9375V5.9375H13.0625V4.75H10.6875ZM8.3125 8.3125H10.6875V9.5H13.0625V8.3125H24.9375V9.5H27.3125V8.3125H29.6875V10.6875H8.3125V8.3125ZM8.3125 13.0625H29.6875V29.6875H8.3125V13.0625ZM15.4375 15.4375V17.8125H17.8125V15.4375H15.4375ZM20.1875 15.4375V17.8125H22.5625V15.4375H20.1875ZM24.9375 15.4375V17.8125H27.3125V15.4375H24.9375ZM10.6875 20.1875V22.5625H13.0625V20.1875H10.6875ZM15.4375 20.1875V22.5625H17.8125V20.1875H15.4375ZM20.1875 20.1875V22.5625H22.5625V20.1875H20.1875ZM24.9375 20.1875V22.5625H27.3125V20.1875H24.9375ZM10.6875 24.9375V27.3125H13.0625V24.9375H10.6875ZM15.4375 24.9375V27.3125H17.8125V24.9375H15.4375ZM20.1875 24.9375V27.3125H22.5625V24.9375H20.1875Z" fill="#4C216E"/>
</svg>
