<svg width="48" height="48" viewBox="0 0 48 48" fill="none" xmlns="http://www.w3.org/2000/svg">
<path d="M28.281 17.72H19.72C18.6154 17.72 17.72 18.6154 17.72 19.72V28.281C17.72 29.3855 18.6154 30.281 19.72 30.281H28.281C29.3855 30.281 30.281 29.3855 30.281 28.281V19.72C30.281 18.6154 29.3855 17.72 28.281 17.72Z" stroke="#4C216E" stroke-width="2" stroke-linecap="round" stroke-linejoin="round"/>
<path d="M28.281 5.15906H19.72C18.6154 5.15906 17.72 6.05449 17.72 7.15906V15.7201C17.72 16.8246 18.6154 17.7201 19.72 17.7201H28.281C29.3855 17.7201 30.281 16.8246 30.281 15.7201V7.15906C30.281 6.05449 29.3855 5.15906 28.281 5.15906Z" stroke="#4C216E" stroke-width="2" stroke-linecap="round" stroke-linejoin="round"/>
<path d="M28.281 30.28H19.72C18.6154 30.28 17.72 31.1755 17.72 32.28V40.841C17.72 41.9456 18.6154 42.841 19.72 42.841H28.281C29.3855 42.841 30.281 41.9456 30.281 40.841V32.28C30.281 31.1755 29.3855 30.28 28.281 30.28Z" stroke="#4C216E" stroke-width="2" stroke-linecap="round" stroke-linejoin="round"/>
<path d="M40.561 5H32C30.8954 5 30 5.89543 30 7V15.561C30 16.6656 30.8954 17.561 32 17.561H40.561C41.6656 17.561 42.561 16.6656 42.561 15.561V7C42.561 5.89543 41.6656 5 40.561 5Z" stroke="#4C216E" stroke-width="2" stroke-linecap="round" stroke-linejoin="round"/>
<path d="M15.7199 17.72H7.15894C6.05437 17.72 5.15894 18.6154 5.15894 19.72V28.281C5.15894 29.3855 6.05437 30.281 7.15894 30.281H15.7199C16.8245 30.281 17.7199 29.3855 17.7199 28.281V19.72C17.7199 18.6154 16.8245 17.72 15.7199 17.72Z" stroke="#4C216E" stroke-width="2" stroke-linecap="round" stroke-linejoin="round"/>
</svg>
