<svg width="50" height="50" viewBox="0 0 50 50" fill="none" xmlns="http://www.w3.org/2000/svg">
<path d="M17.2592 38.8249C17.6967 38.5687 18.1749 38.3187 18.6936 38.0812C18.2554 38.7345 17.7861 39.3665 17.2874 39.9749C16.4124 41.028 15.7311 41.5874 15.303 41.7624C15.2675 41.7774 15.2309 41.79 15.1936 41.7999C15.1624 41.7566 15.1352 41.7106 15.1124 41.6624C14.9374 41.3187 14.9436 40.9874 15.2374 40.5374C15.5686 40.0218 16.2342 39.4312 17.2592 38.8249ZM24.9311 33.678C24.5592 33.7562 24.1905 33.8343 23.8186 33.9218C24.3694 32.8426 24.8905 31.7484 25.3811 30.6405C25.8751 31.5559 26.4068 32.4504 26.9749 33.3218C26.2967 33.4218 25.6124 33.5405 24.9311 33.678ZM32.8217 36.6124C32.3364 36.2209 31.8819 35.7925 31.4624 35.3312C32.1749 35.3468 32.8186 35.3999 33.3749 35.4999C34.3655 35.678 34.8311 35.9593 34.9936 36.153C35.0448 36.2071 35.0738 36.2785 35.0749 36.353C35.0639 36.5735 34.9996 36.788 34.8874 36.978C34.8244 37.1303 34.7232 37.2637 34.5936 37.3655C34.5291 37.4051 34.4531 37.4216 34.378 37.4124C34.0967 37.403 33.5717 37.2062 32.8217 36.6124ZM25.8686 21.7812C25.7436 22.5437 25.5311 23.4187 25.2436 24.3718C25.1377 24.0149 25.0449 23.6542 24.9655 23.2905C24.728 22.1874 24.6936 21.3218 24.8217 20.7218C24.9405 20.1687 25.1655 19.9468 25.4342 19.8374C25.5784 19.7739 25.731 19.7318 25.8874 19.7124C25.928 19.8062 25.9749 19.9999 25.9874 20.3312C26.003 20.7124 25.9655 21.1968 25.8686 21.7843V21.7812Z" fill="#311547"/>
<path fill-rule="evenodd" clip-rule="evenodd" d="M12.5 0H29.0406C29.8694 0.000176992 30.6641 0.329533 31.25 0.915625L42.8344 12.5C43.4205 13.0859 43.7498 13.8806 43.75 14.7094V43.75C43.75 45.4076 43.0915 46.9973 41.9194 48.1694C40.7473 49.3415 39.1576 50 37.5 50H12.5C10.8424 50 9.25268 49.3415 8.08058 48.1694C6.90848 46.9973 6.25 45.4076 6.25 43.75V6.25C6.25 4.5924 6.90848 3.00269 8.08058 1.83058C9.25268 0.65848 10.8424 0 12.5 0ZM29.6875 4.6875V10.9375C29.6875 11.7663 30.0167 12.5612 30.6028 13.1472C31.1888 13.7333 31.9837 14.0625 32.8125 14.0625H39.0625L29.6875 4.6875ZM13.0156 42.7125C13.2969 43.275 13.7344 43.7844 14.3844 44.0219C15.0313 44.2562 15.6719 44.1469 16.1969 43.9281C17.1906 43.5219 18.1813 42.5656 19.0906 41.4719C20.1313 40.2187 21.225 38.575 22.2813 36.7531C24.3204 36.1487 26.4086 35.7242 28.5219 35.4844C29.4594 36.6812 30.4281 37.7125 31.3656 38.4531C32.2406 39.1406 33.25 39.7125 34.2844 39.7563C34.8478 39.7841 35.4056 39.6332 35.8781 39.325C36.3625 39.0094 36.7219 38.5531 36.9844 38.025C37.2656 37.4594 37.4375 36.8687 37.4156 36.2656C37.3958 35.671 37.1756 35.1005 36.7906 34.6469C36.0844 33.8031 34.9281 33.3969 33.7906 33.1937C32.4108 32.98 31.0107 32.9276 29.6187 33.0375C28.4433 31.3758 27.4184 29.6126 26.5563 27.7687C27.3375 25.7062 27.9219 23.7562 28.1812 22.1625C28.2937 21.4813 28.3531 20.8313 28.3312 20.2438C28.3274 19.6606 28.1917 19.0858 27.9344 18.5625C27.7861 18.2737 27.5754 18.0215 27.3176 17.8242C27.0598 17.6269 26.7613 17.4895 26.4437 17.4219C25.8125 17.2875 25.1625 17.4219 24.5656 17.6625C23.3875 18.1312 22.7656 19.1312 22.5313 20.2344C22.3031 21.2969 22.4063 22.5344 22.675 23.7844C22.95 25.0531 23.4187 26.4344 24.0187 27.8313C23.059 30.2181 21.9506 32.5425 20.7 34.7906C19.0895 35.2973 17.5371 35.973 16.0688 36.8062C14.9125 37.4937 13.8844 38.3062 13.2656 39.2656C12.6094 40.2844 12.4062 41.4969 13.0156 42.7125Z" fill="#311547"/>
</svg>
