<svg width="35" height="35" viewBox="0 0 35 35" fill="none" xmlns="http://www.w3.org/2000/svg">
<path d="M3.75 13.85H31.25V31.35C31.25 32.013 30.9866 32.6489 30.5178 33.1177C30.0489 33.5866 29.413 33.85 28.75 33.85H6.25C5.58696 33.85 4.95107 33.5866 4.48223 33.1177C4.01339 32.6489 3.75 32.013 3.75 31.35V13.85Z" stroke="#4C216E" stroke-width="2.14286" stroke-linecap="round" stroke-linejoin="round"/>
<path d="M33.75 11.35V6.34998C33.75 4.96926 32.6307 3.84998 31.25 3.84998L3.75 3.84998C2.36929 3.84998 1.25 4.96926 1.25 6.34998V11.35C1.25 12.7307 2.36929 13.85 3.75 13.85L31.25 13.85C32.6307 13.85 33.75 12.7307 33.75 11.35Z" stroke="#4C216E" stroke-width="2.14286" stroke-linecap="round" stroke-linejoin="round"/>
<path d="M13.75 21.35H21.25" stroke="#4C216E" stroke-width="2.14286" stroke-linecap="round" stroke-linejoin="round"/>
</svg>
