<svg width="46" height="46" viewBox="0 0 46 46" fill="none" xmlns="http://www.w3.org/2000/svg">
<path d="M13.2165 0.166626H32.1165C39.3165 0.166626 45.1665 6.01663 45.1665 13.2166V32.1166C45.1665 35.5777 43.7916 38.897 41.3442 41.3444C38.8969 43.7917 35.5776 45.1666 32.1165 45.1666H13.2165C6.0165 45.1666 0.166504 39.3166 0.166504 32.1166V13.2166C0.166504 9.75555 1.54141 6.43623 3.98876 3.98888C6.43611 1.54153 9.75543 0.166626 13.2165 0.166626ZM12.7665 4.66663C10.6183 4.66663 8.55798 5.52002 7.03894 7.03906C5.51989 8.55811 4.6665 10.6184 4.6665 12.7666V32.5666C4.6665 37.0441 8.289 40.6666 12.7665 40.6666H32.5665C34.7148 40.6666 36.775 39.8132 38.2941 38.2942C39.8131 36.7751 40.6665 34.7149 40.6665 32.5666V12.7666C40.6665 8.28913 37.044 4.66663 32.5665 4.66663H12.7665ZM34.479 8.04163C35.2249 8.04163 35.9403 8.33794 36.4677 8.86539C36.9952 9.39283 37.2915 10.1082 37.2915 10.8541C37.2915 11.6 36.9952 12.3154 36.4677 12.8429C35.9403 13.3703 35.2249 13.6666 34.479 13.6666C33.7331 13.6666 33.0177 13.3703 32.4903 12.8429C31.9628 12.3154 31.6665 11.6 31.6665 10.8541C31.6665 10.1082 31.9628 9.39283 32.4903 8.86539C33.0177 8.33794 33.7331 8.04163 34.479 8.04163ZM22.6665 11.4166C25.6502 11.4166 28.5117 12.6019 30.6215 14.7117C32.7312 16.8215 33.9165 19.6829 33.9165 22.6666C33.9165 25.6503 32.7312 28.5118 30.6215 30.6216C28.5117 32.7314 25.6502 33.9166 22.6665 33.9166C19.6828 33.9166 16.8213 32.7314 14.7116 30.6216C12.6018 28.5118 11.4165 25.6503 11.4165 22.6666C11.4165 19.6829 12.6018 16.8215 14.7116 14.7117C16.8213 12.6019 19.6828 11.4166 22.6665 11.4166ZM22.6665 15.9166C20.8763 15.9166 19.1594 16.6278 17.8935 17.8937C16.6277 19.1595 15.9165 20.8764 15.9165 22.6666C15.9165 24.4568 16.6277 26.1737 17.8935 27.4396C19.1594 28.7055 20.8763 29.4166 22.6665 29.4166C24.4567 29.4166 26.1736 28.7055 27.4395 27.4396C28.7053 26.1737 29.4165 24.4568 29.4165 22.6666C29.4165 20.8764 28.7053 19.1595 27.4395 17.8937C26.1736 16.6278 24.4567 15.9166 22.6665 15.9166Z" fill="#4C216E"/>
</svg>
