<svg width="35" height="35" viewBox="0 0 35 35" fill="none" xmlns="http://www.w3.org/2000/svg">
<path d="M5.83325 31.2083V3.79163C5.83325 3.55956 5.92544 3.337 6.08953 3.17291C6.25363 3.00881 6.47619 2.91663 6.70825 2.91663H23.7008C23.9327 2.91683 24.1551 3.00915 24.3191 3.17329L28.9099 7.76413C28.9915 7.84565 29.0562 7.9425 29.1003 8.04912C29.1443 8.15574 29.1669 8.27002 29.1666 8.38538V31.2083C29.1666 31.3232 29.144 31.437 29.1 31.5431C29.056 31.6493 28.9916 31.7458 28.9103 31.827C28.8291 31.9083 28.7326 31.9727 28.6264 32.0167C28.5203 32.0607 28.4065 32.0833 28.2916 32.0833H6.70825C6.59335 32.0833 6.47956 32.0607 6.3734 32.0167C6.26724 31.9727 6.17078 31.9083 6.08953 31.827C6.00828 31.7458 5.94383 31.6493 5.89986 31.5431C5.85588 31.437 5.83325 31.3232 5.83325 31.2083Z" stroke="#4C216E" stroke-width="2" stroke-linecap="round" stroke-linejoin="round"/>
<path d="M23.3333 2.91663V7.87496C23.3333 8.10702 23.4254 8.32958 23.5895 8.49368C23.7536 8.65777 23.9762 8.74996 24.2083 8.74996H29.1666" stroke="#4C216E" stroke-width="2" stroke-linecap="round" stroke-linejoin="round"/>
</svg>
